<svg version="1.1" id="Layer_1" xmlns="http://www.w3.org/2000/svg" xmlns:xlink="http://www.w3.org/1999/xlink" x="0px" y="0px"
	 width="100%" viewBox="0 0 200 200" enable-background="new 0 0 200 200" xml:space="preserve">
<path fill="#FF4017" opacity="1.000000" stroke="none" 
	d="
M2.000000,1.000000 
	C68.284760,1.000000 134.569519,1.000000 200.927139,1.000000 
	C200.927139,67.569214 200.927139,134.138519 200.927139,201.000000 
	C134.979385,201.000000 68.958351,201.000000 2.468374,200.531342 
	C1.999622,133.708450 1.999811,67.354225 2.000000,1.000000 
M125.139778,118.414734 
	C129.026733,128.672440 132.866898,138.948395 136.856796,149.165909 
	C137.386246,150.521759 138.628098,152.566818 139.623093,152.616104 
	C145.978943,152.930984 152.358017,152.776566 158.681015,152.776566 
	C158.681015,151.726746 158.777756,151.365021 158.667282,151.085068 
	C145.428223,117.538109 132.212463,83.981689 118.787643,50.509132 
	C118.213806,49.078365 115.723022,47.594959 114.084587,47.547771 
	C104.430428,47.269711 94.764206,47.410381 85.102051,47.410164 
	C79.150528,47.410030 73.199005,47.410141 67.080246,47.410141 
	C67.080246,53.640366 67.080246,59.356194 67.080246,65.313438 
	C78.234108,65.313438 89.055603,65.544762 99.858643,65.199265 
	C104.163803,65.061577 105.848747,66.637100 107.245415,70.516609 
	C112.930611,86.308311 119.001770,101.961060 125.139778,118.414734 
M89.781891,152.073517 
	C89.781891,146.475922 89.781891,140.878326 89.781891,135.156494 
	C72.433434,135.156494 55.379253,135.156494 38.289501,135.156494 
	C38.289501,141.121643 38.289501,146.814697 38.289501,152.668716 
	C55.474792,152.668716 72.265396,152.668716 89.781891,152.073517 
z"/>
<path fill="#FF5734" opacity="1.000000" stroke="none" 
	d="
M1.500000,1.000000 
	C1.999811,67.354225 1.999622,133.708450 1.999716,200.531342 
	C1.666666,199.670807 1.042673,198.341812 1.041704,197.012375 
	C0.994086,131.674942 1.000000,66.337471 1.500000,1.000000 
z"/>
<path fill="#FFFBFB" opacity="1.000000" stroke="none" 
	d="
M125.035225,118.039879 
	C119.001770,101.961060 112.930611,86.308311 107.245415,70.516609 
	C105.848747,66.637100 104.163803,65.061577 99.858643,65.199265 
	C89.055603,65.544762 78.234108,65.313438 67.080246,65.313438 
	C67.080246,59.356194 67.080246,53.640366 67.080246,47.410141 
	C73.199005,47.410141 79.150528,47.410030 85.102051,47.410164 
	C94.764206,47.410381 104.430428,47.269711 114.084587,47.547771 
	C115.723022,47.594959 118.213806,49.078365 118.787643,50.509132 
	C132.212463,83.981689 145.428223,117.538109 158.667282,151.085068 
	C158.777756,151.365021 158.681015,151.726746 158.681015,152.776566 
	C152.358017,152.776566 145.978943,152.930984 139.623093,152.616104 
	C138.628098,152.566818 137.386246,150.521759 136.856796,149.165909 
	C132.866898,138.948395 129.026733,128.672440 125.035225,118.039879 
z"/>
<path fill="#FFFCFB" opacity="1.000000" stroke="none" 
	d="
M89.418945,152.371124 
	C72.265396,152.668716 55.474792,152.668716 38.289501,152.668716 
	C38.289501,146.814697 38.289501,141.121643 38.289501,135.156494 
	C55.379253,135.156494 72.433434,135.156494 89.781891,135.156494 
	C89.781891,140.878326 89.781891,146.475922 89.418945,152.371124 
z"/>
</svg>